<?xml version="1.0" encoding="utf-8"?>
<!-- Generator: Adobe Illustrator 16.0.0, SVG Export Plug-In . SVG Version: 6.00 Build 0)  -->
<!DOCTYPE svg PUBLIC "-//W3C//DTD SVG 1.1//EN" "http://www.w3.org/Graphics/SVG/1.1/DTD/svg11.dtd">
<svg version="1.1" id="レイヤー_1" xmlns="http://www.w3.org/2000/svg" xmlns:xlink="http://www.w3.org/1999/xlink" x="0px"
	 y="0px" width="108.498px" height="102.008px" viewBox="0 0 108.498 102.008" enable-background="new 0 0 108.498 102.008"
	 xml:space="preserve">
<g>
	<circle fill="#3A8FCB" cx="81.621" cy="7.792" r="7.792"/>
	<path fill="#3A8FCB" d="M82.115,18.417c-5.531,0-14.515,0.819-17.33,11.204l-6.669,22.553c-0.501,1.598,0.386,3.301,1.984,3.803
		s3.039-0.518,3.802-1.984l7.176-13.948l1.561,58.011c0,2.184,1.77,3.953,3.953,3.953c2.182,0,3.954-1.77,3.954-3.953l1.569-35.664
		l1.57,35.664c0,2.184,1.77,3.953,3.953,3.953c2.182,0,3.953-1.77,3.953-3.953l1.094-40.678c0.391,1.081,1.381,1.893,2.603,1.991
		c1.671,0.136,3.133-1.108,3.269-2.778l0.724-26.617C99.632,19.728,87.646,18.417,82.115,18.417z"/>
	<circle fill="#3A8FCB" cx="28.579" cy="7.792" r="7.792"/>
	<path fill="#3A8FCB" d="M14.371,54.247l3.422-12.819l1.285,7.291l-1.42,5.528h22.309l-1.412-5.528l1.273-11.693
		c0,0,3.591,4.361,3.99,4.724c3.115,3.169,6.745,2.379,8.008-1.567l4.696-14.629c0.573-1.539-0.21-3.25-1.749-3.821
		c-1.537-0.573-3.249,0.212-3.821,1.75l-4.031,8.955l-2.166-3.666c-3.357-5.522-7.876-10.353-15.928-10.353
		c-5.531,0-15.365,1.399-17.102,14.029L8.115,54.247H14.371z"/>
	<rect y="56.887" fill="#3A8FCB" width="108.498" height="5.016"/>
</g>
</svg>
