<?xml version="1.0" encoding="utf-8"?>
<!-- Generator: Adobe Illustrator 16.0.0, SVG Export Plug-In . SVG Version: 6.00 Build 0)  -->
<!DOCTYPE svg PUBLIC "-//W3C//DTD SVG 1.1//EN" "http://www.w3.org/Graphics/SVG/1.1/DTD/svg11.dtd">
<svg version="1.1" id="レイヤー_1" xmlns="http://www.w3.org/2000/svg" xmlns:xlink="http://www.w3.org/1999/xlink" x="0px"
	 y="0px" width="101.325px" height="103.523px" viewBox="0 0 101.325 103.523" enable-background="new 0 0 101.325 103.523"
	 xml:space="preserve">
<g>
	<circle fill="#E7BE22" cx="44.485" cy="17.473" r="7.792"/>
	<path fill="#E7BE22" d="M62.38,29.685c0.156-1.668-1.066-3.147-2.733-3.305s-2.855,0.919-3.257,2.42l-1.896,7.568
		c0,0-13.592-7.876-16.628-9.592c-2.125-1.201-6.11-1.002-7.992-0.648C28.857,26.341,2.65,30.792,2.65,30.792
		c-1.662,0.211-2.837,1.729-2.625,3.39c0.211,1.662,1.729,2.837,3.39,2.626l19.404-1.32c-2.772,2.64-6.468,9.504-7.26,12.672
		c-1.631,6.525-1.457,11.221-1.649,15.255L13.82,78.717l-0.118,20.397c-0.109,2.181,1.57,4.036,3.75,4.144
		c2.181,0.109,4.037-1.57,4.146-3.752l1.909-20.309l1.223-12.99l2.803,13.969l4.014,20c0.335,2.156,2.355,3.635,4.513,3.299
		c2.156-0.334,3.633-2.355,3.3-4.513l-2.243-20.274l-1.681-15.209c-0.957-13.014,6.696-21.15,7.974-21.786l12.276,3.564
		c2.199,0.528,5.016-0.66,5.348-3.203C61.036,42.048,62.38,29.685,62.38,29.685z"/>
	<polygon fill="#E7BE22" points="58.345,16.987 54.235,15.75 54.235,19.541 54.235,23.331 58.345,22.094 74.05,25.857 74.05,19.541 
		74.05,13.225 	"/>
	<g>
		<polygon fill="#E7BE22" points="76.476,24.182 77.079,23.151 101.325,35.922 99.501,39.046 		"/>
	</g>
	<g>
		<polygon fill="#E7BE22" points="76.476,14.864 77.079,15.894 101.325,3.123 99.501,0 		"/>
	</g>
</g>
</svg>
