<?xml version="1.0" encoding="utf-8"?>
<!-- Generator: Adobe Illustrator 16.0.0, SVG Export Plug-In . SVG Version: 6.00 Build 0)  -->
<!DOCTYPE svg PUBLIC "-//W3C//DTD SVG 1.1//EN" "http://www.w3.org/Graphics/SVG/1.1/DTD/svg11.dtd">
<svg version="1.1" id="レイヤー_1" xmlns="http://www.w3.org/2000/svg" xmlns:xlink="http://www.w3.org/1999/xlink" x="0px"
	 y="0px" width="101.418px" height="82.954px" viewBox="0 0 101.418 82.954" enable-background="new 0 0 101.418 82.954"
	 xml:space="preserve">
<g>
	<g>
		<circle fill="#DD7B27" cx="56.527" cy="9.116" r="7.793"/>
		<path fill="#DD7B27" d="M77.149,15.569c-1.386-0.592-2.99,0.049-3.583,1.435l-6.601,10.553l-7.004-4.157L21.488,0.5
			c-1.399-0.921-3.279-0.534-4.2,0.864c-0.922,1.399-0.533,3.279,0.865,4.201l19.758,15.232c0.563,0.396,0.685,1.238,0.176,2.2
			C37.321,24.44,0.991,73.392,0.991,73.392c-1.446,1.636-1.292,4.134,0.343,5.579c1.637,1.446,4.135,1.293,5.581-0.344
			l27.667-25.901c0.792-0.792,1.231-1.231,3.344,0.176l12.265,7.042l1.292,17.977c0.012,1.965,1.614,3.548,3.579,3.535
			s3.549-1.615,3.536-3.58l1.135-19.838c0.105-2.033-0.423-3.287-1.972-4.738L46.198,42.342c0,0,7.533-7.778,8.838-8.907
			c0.599-0.517,1.152-1.45,2.127-1.124l9.274,3.694c2.442,1.189,3.744-0.264,5.012-1.422l7.135-15.43
			C79.177,17.767,78.535,16.163,77.149,15.569z"/>
	</g>
	<g>
		<polygon fill="#DD7B27" points="74.354,11.164 84.585,13.924 83.973,16.665 73.539,14.813 		"/>
		<circle fill="#DD7B27" cx="70.505" cy="12.024" r="3.133"/>
	</g>
	<path fill="#DD7B27" d="M100.521,75.686l-10.448-2.633L78.163,13.246c-0.128-0.643-0.751-1.061-1.396-0.933
		c-0.644,0.128-1.062,0.754-0.934,1.397l11.924,59.885l-8.036,7.291c-0.487,0.441-0.523,1.192-0.082,1.679
		c0.234,0.258,0.557,0.39,0.88,0.39c0.284,0,0.57-0.102,0.798-0.309l8.064-7.316l10.559,2.66c0.098,0.024,0.195,0.036,0.292,0.036
		c0.531,0,1.015-0.359,1.15-0.897C101.542,76.491,101.157,75.846,100.521,75.686z"/>
</g>
</svg>
