<?xml version="1.0" encoding="utf-8"?>
<!-- Generator: Adobe Illustrator 16.0.0, SVG Export Plug-In . SVG Version: 6.00 Build 0)  -->
<!DOCTYPE svg PUBLIC "-//W3C//DTD SVG 1.1//EN" "http://www.w3.org/Graphics/SVG/1.1/DTD/svg11.dtd">
<svg version="1.1" id="レイヤー_1" xmlns="http://www.w3.org/2000/svg" xmlns:xlink="http://www.w3.org/1999/xlink" x="0px"
	 y="0px" width="117.997px" height="91.405px" viewBox="0 0 117.997 91.405" enable-background="new 0 0 117.997 91.405"
	 xml:space="preserve">
<g>
	<path fill="#26B395" d="M41.403,44.834L27.836,44.27l-5.492-8.353c-4.445-6.617-11.858-4.511-12.959-0.348l-6.403,23.1
		c-1.319,4.488,1.32,10.022,6.952,10.022h13.202l2.025,19.162c0.225,1.951,1.991,3.351,3.942,3.124
		c1.951-0.224,3.353-1.991,3.126-3.941l0.017-22.612c-0.295-3.876-3.647-4.679-5.83-5.153l-8.65-1.393
		c-0.008-0.308,1.581-5.816,2.923-10.412l2.073,2.617c0.728,1.008,1.867,1.539,3.022,1.538l0.003,0.004l0.067-0.003
		c0.042-0.001,15.563-0.723,15.563-0.723c1.675-0.004,3.03-1.365,3.026-3.039C44.439,46.186,43.078,44.83,41.403,44.834z"/>
	<circle fill="#26B395" cx="21.915" cy="20.836" r="7.792"/>
	<path fill="#26B395" d="M21.126,73.71c0,0.479-0.388,0.865-0.866,0.865H0.865C0.387,74.575,0,74.188,0,73.71v-2.633
		c0-0.479,0.387-0.865,0.865-0.865h19.396c0.478,0,0.866,0.387,0.866,0.865V73.71z"/>
	<rect x="2.159" y="75.565" fill="#26B395" width="3.433" height="13.729"/>
	<rect x="15.786" y="75.565" fill="#26B395" width="3.431" height="13.729"/>
	<rect x="67.882" y="29.102" fill="#26B395" width="3.431" height="13.728"/>
	<path fill="#26B395" d="M63.971,41.208h53.949c0.046-0.303,0.077-0.611,0.077-0.926v-11.48c0-3.485-2.847-6.497-6.325-6.694
		l-19.073-1.925c-3.479-0.197-7.383-3.005-8.675-6.241l-3.221-8.058C79.411,2.647,75.502,0,72.018,0h-7.126
		c-0.313,0-0.619,0.031-0.921,0.075V41.208z"/>
	<polygon fill="#26B395" points="49.317,42.963 49.317,51.849 36.117,51.849 36.117,59.594 43.508,59.594 70.261,59.594 
		117.997,59.594 117.997,42.963 	"/>
	<path fill="#26B395" d="M111.473,60.43h-1.854h-5.803v1.979c0,0,1.846,0,3.299,0c1.414,0,2.449,1.627,2.504,3.419v25.577h4.289
		V60.43H111.473z"/>
	<path fill="#26B395" d="M49.506,60.43h-2.161h-0.397h-2.161h-5.495v1.979c0,0,1.849,0,3.3,0c0.981,0,1.78,0.783,2.195,1.86v27.136
		h4.719V64.27c0.416-1.077,1.214-1.86,2.194-1.86c1.453,0,3.3,0,3.3,0V60.43H49.506z"/>
</g>
</svg>
