<?xml version="1.0" encoding="utf-8"?>
<!-- Generator: Adobe Illustrator 16.0.0, SVG Export Plug-In . SVG Version: 6.00 Build 0)  -->
<!DOCTYPE svg PUBLIC "-//W3C//DTD SVG 1.1//EN" "http://www.w3.org/Graphics/SVG/1.1/DTD/svg11.dtd">
<svg version="1.1" id="レイヤー_1" xmlns="http://www.w3.org/2000/svg" xmlns:xlink="http://www.w3.org/1999/xlink" x="0px"
	 y="0px" width="119.223px" height="105.187px" viewBox="0 0 119.223 105.187" enable-background="new 0 0 119.223 105.187"
	 xml:space="preserve">
<g>
	<g>
		<path fill="#4BB56D" d="M47.686,34.153c0.443,0.41,1.134,0.383,1.543-0.06l18.88-20.875c0.294-0.318,0.274-0.813-0.042-1.106
			c-0.318-0.294-0.814-0.274-1.107,0.044L47.625,32.607C47.213,33.051,47.242,33.743,47.686,34.153z"/>
		<rect x="18.983" y="21.991" fill="#4BB56D" width="3.52" height="1.76"/>
		<circle fill="#4BB56D" cx="70.609" cy="36.831" r="2.288"/>
		<g>
			<g>
				<rect x="78.52" y="15.183" fill="#4BB56D" width="7.744" height="26.752"/>
				<rect x="66.553" y="22.176" fill="#4BB56D" width="7.743" height="19.759"/>
				<rect x="90.487" y="26.928" fill="#4BB56D" width="7.744" height="15.007"/>
				<rect x="102.454" y="23.761" fill="#4BB56D" width="7.746" height="18.174"/>
			</g>
			<path fill="#4BB56D" d="M117.64,9.151c0.87,0,1.583-0.713,1.583-1.584V6.448c0-0.872-0.713-1.584-1.583-1.584H90.487V2.112
				C90.487,0.946,89.542,0,88.375,0s-2.111,0.946-2.111,2.112v2.751H59.112c-0.871,0-1.584,0.712-1.584,1.584v1.119
				c0,0.871,0.713,1.584,1.584,1.584H60v8.211l2.113-2.234V9.151h52.523v35.704H62.114V22.05L60,24.386v20.469h-0.889
				c-0.871,0-1.584,0.712-1.584,1.583v1.12c0,0.871,0.713,1.584,1.584,1.584h27.152v33.934L70.145,99.197
				c-0.619,0.619-0.619,1.621,0,2.24c0.619,0.618,1.62,0.618,2.238,0l13.881-13.88v12.231c0,1.166,0.945,2.112,2.111,2.112
				s2.111-0.946,2.111-2.112V87.557l13.88,13.88c0.31,0.309,0.716,0.464,1.12,0.464s0.811-0.155,1.121-0.464
				c0.618-0.619,0.618-1.621,0-2.24L90.487,83.076V49.142h27.153c0.87,0,1.583-0.713,1.583-1.584v-1.12
				c0-0.871-0.713-1.583-1.583-1.583h-0.891V9.151H117.64z"/>
			<circle fill="#4BB56D" cx="82.226" cy="25.919" r="2.289"/>
			<circle fill="#4BB56D" cx="94.359" cy="34.431" r="2.289"/>
			<circle fill="#4BB56D" cx="106.514" cy="28.031" r="2.288"/>
		</g>
		<path fill="#4BB56D" d="M55.077,26.026c-1.186-1.184-3.105-1.184-4.289,0l-8.854,8.121l-5.352-6.209
			c-2.047-2.173-7.836-6.475-16.283-6.475c-10.033,0-16.221,4.928-17.065,11.669L0.045,58.589c-0.287,1.648,0.816,3.22,2.467,3.507
			c1.65,0.286,3.222-0.817,3.508-2.468l3.688-16.362l0.284,7.42L3.096,80.39h8.037l0.809,20.986c0,2.074,1.682,3.811,3.754,3.811
			c2.074,0,3.757-1.736,3.757-3.811L20.21,80.39h0.837h0.229l0.758,20.961c0,2.074,1.682,3.755,3.756,3.755s3.756-1.681,3.756-3.755
			l0.865-20.961H39l-7.293-31.414l0.537-13.006l7.002,5.886c1.453,1.453,3.809,1.453,5.262,0v0l10.568-11.541
			C56.26,29.131,56.26,27.211,55.077,26.026z"/>
	</g>
	<circle fill="#4BB56D" cx="19.582" cy="9.982" r="7.792"/>
</g>
</svg>
