<?xml version="1.0" encoding="utf-8"?>
<!-- Generator: Adobe Illustrator 16.0.0, SVG Export Plug-In . SVG Version: 6.00 Build 0)  -->
<!DOCTYPE svg PUBLIC "-//W3C//DTD SVG 1.1//EN" "http://www.w3.org/Graphics/SVG/1.1/DTD/svg11.dtd">
<svg version="1.1" id="レイヤー_1" xmlns="http://www.w3.org/2000/svg" xmlns:xlink="http://www.w3.org/1999/xlink" x="0px"
	 y="0px" width="75.467px" height="72.986px" viewBox="0 0 75.467 72.986" enable-background="new 0 0 75.467 72.986"
	 xml:space="preserve">
<g>
	<circle fill="#EA981E" cx="25.591" cy="7.792" r="7.793"/>
	<path fill="#EA981E" d="M51.86,64.293l20.363-2.883c1.957-0.172,3.402-1.898,3.229-3.857c-0.175-1.957-1.903-3.402-3.859-3.229
		l-17.861-0.559L42.741,25.14l7.393-1.979l9.887,7.392c1.303,1.054,3.212,0.85,4.264-0.454c1.053-1.302,0.85-3.211-0.453-4.265
		l-9.75-9.051c-1.037-1.018-2.047-1.773-3.814-1.842c-20.071,2.676-36.614,4.656-36.614,4.656L5.502,9.16
		C4.53,7.796,2.637,7.478,1.272,8.45c-1.363,0.972-1.681,2.864-0.71,4.229L9.072,25.81c0.942,1.322,2.958,1.574,4.455,1.486
		l10.069-0.526c1.898,3.638,5.191,12.373,5.406,12.835c0.189,0.406,0.089,0.676-0.207,0.803c-0.326,0.133-12.1,5.148-12.1,5.148
		c-1.673,0.66-3.124,1.793-3.651,3.064L6.436,68.068c-0.75,1.816,0.113,3.896,1.928,4.646c1.816,0.752,3.898-0.111,4.648-1.928
		l7.912-16.135l16.792-4.816c0.539-0.188,1.06,0.121,1.188,0.297s6.337,10.957,6.337,10.957
		C46.233,62.496,48.349,64.701,51.86,64.293z"/>
</g>
</svg>
