<?xml version="1.0" encoding="utf-8"?>
<!-- Generator: Adobe Illustrator 16.0.0, SVG Export Plug-In . SVG Version: 6.00 Build 0)  -->
<!DOCTYPE svg PUBLIC "-//W3C//DTD SVG 1.1//EN" "http://www.w3.org/Graphics/SVG/1.1/DTD/svg11.dtd">
<svg version="1.1" id="レイヤー_1" xmlns="http://www.w3.org/2000/svg" xmlns:xlink="http://www.w3.org/1999/xlink" x="0px"
	 y="0px" width="72.864px" height="108.076px" viewBox="0 0 72.864 108.076" enable-background="new 0 0 72.864 108.076"
	 xml:space="preserve">
<g>
	<g>
		<circle fill="#B73A2B" cx="43.615" cy="7.828" r="7.827"/>
		<path fill="#B73A2B" d="M70.585,45.315L58.946,23.3c-3.07-4.674-13.024-9.152-18.535,3.253L29.522,51.682
			c-0.733,1.507-0.106,3.32,1.399,4.052c1.506,0.732,3.321,0.105,4.054-1.398L45.68,35.798L56.853,56.56v47.045
			c0,2.469,2.003,4.472,4.472,4.472c1.997,0,3.875-1.384,4.294-3.289c0,0,6.2-41.3,6.705-43.823
			C72.829,58.438,73.8,50.575,70.585,45.315z"/>
	</g>
	<g>
		<g>
			<path fill="#B73A2B" d="M20.455,28.938c-1.31,0.808-3.027,0.402-3.834-0.908l-0.366-0.594c-0.809-1.309-0.401-3.026,0.909-3.834
				l1.926-1.189c1.31-0.808,3.027-0.4,3.834,0.91l0.366,0.592c0.809,1.311,0.402,3.028-0.909,3.834L20.455,28.938z"/>
			<path fill="#B73A2B" d="M16.278,30.129L5.155,36.992c-0.885,0.545-2.047,0.271-2.594-0.616l0,0
				c-0.547-0.886-0.272-2.048,0.614-2.595l11.124-6.861L16.278,30.129z"/>
		</g>
		<polygon fill="#B73A2B" points="38.994,53.12 0.484,47.653 0,50.567 1.359,50.76 1.359,106.538 36.85,106.538 36.85,55.798 
			38.511,56.032 		"/>
		<polygon fill="#B73A2B" points="8.176,49.385 8.176,29.232 10.289,28.176 11.344,32.665 11.344,49.737 		"/>
	</g>
</g>
</svg>
