<?xml version="1.0" encoding="utf-8"?>
<!-- Generator: Adobe Illustrator 16.0.0, SVG Export Plug-In . SVG Version: 6.00 Build 0)  -->
<!DOCTYPE svg PUBLIC "-//W3C//DTD SVG 1.1//EN" "http://www.w3.org/Graphics/SVG/1.1/DTD/svg11.dtd">
<svg version="1.1" id="レイヤー_1" xmlns="http://www.w3.org/2000/svg" xmlns:xlink="http://www.w3.org/1999/xlink" x="0px"
	 y="0px" width="480px" height="100px" viewBox="0 0 480 100" enable-background="new 0 0 480 100" xml:space="preserve">
<g>
	<path fill="#3E3A39" d="M39.123,50c0-7.52,2.546-13.827,7.64-18.92c5.092-5.092,11.373-7.64,18.84-7.64v3.84
		c-6.348,0-11.694,2.147-16.04,6.44c-4.348,4.294-6.52,9.748-6.52,16.36c0,5.6,1.707,10.401,5.12,14.401
		c3.413,4,7.92,6.613,13.52,7.84V36.8h3.92v40.001c-7.68-0.801-13.92-3.467-18.72-8C41.709,63.895,39.123,57.627,39.123,50z"/>
	<path fill="#3E3A39" d="M125.042,50.24c0,7.52-2.667,13.948-8,19.28c-5.333,5.334-11.76,8-19.28,8s-13.974-2.611-19.36-7.84
		c-5.388-5.227-8.08-11.625-8.08-19.2c0-7.84,2.692-14.426,8.08-19.76c5.386-5.333,12-8,19.84-8c7.466,0,13.8,2.708,19,8.12
		C122.443,36.253,125.042,42.72,125.042,50.24z M74.163,50.16c0,6.454,2.292,11.975,6.88,16.561
		c4.586,4.586,10.133,6.879,16.64,6.879c6.453,0,11.986-2.252,16.6-6.76c4.612-4.506,6.92-9.959,6.92-16.36
		c0-6.827-2.32-12.506-6.96-17.04c-4.64-4.533-10.348-6.8-17.12-6.8c-6.293,0-11.694,2.334-16.2,7
		C76.415,38.307,74.163,43.813,74.163,50.16z"/>
	<path fill="#3E3A39" d="M182.882,50.24c0,7.52-2.667,13.948-8,19.28c-5.333,5.334-11.76,8-19.28,8s-13.974-2.611-19.36-7.84
		c-5.388-5.227-8.08-11.625-8.08-19.2c0-7.84,2.692-14.426,8.08-19.76c5.386-5.333,12-8,19.84-8c7.466,0,13.8,2.708,19,8.12
		C180.282,36.253,182.882,42.72,182.882,50.24z M132.002,50.16c0,6.454,2.292,11.975,6.88,16.561
		c4.586,4.586,10.133,6.879,16.64,6.879c6.453,0,11.986-2.252,16.6-6.76c4.612-4.506,6.92-9.959,6.92-16.36
		c0-6.827-2.32-12.506-6.96-17.04c-4.64-4.533-10.348-6.8-17.12-6.8c-6.293,0-11.694,2.334-16.2,7
		C134.254,38.307,132.002,43.813,132.002,50.16z"/>
	<path fill="#3E3A39" d="M188.241,23.44h3.521c7.572,0,13.933,2.52,19.08,7.56c5.146,5.04,7.72,11.32,7.72,18.84
		c0,7.52-2.641,13.895-7.92,19.121c-5.28,5.227-11.681,7.84-19.2,7.84h-3.2V23.44z M214.722,49.76c0-6.132-2.214-11.44-6.641-15.92
		s-9.733-6.72-15.92-6.72v45.681c6.347,0,11.692-2.227,16.04-6.682C212.548,61.668,214.722,56.213,214.722,49.76z"/>
	<path fill="#3E3A39" d="M241.119,76.801V23.44h3.92v53.361H241.119z"/>
	<path fill="#3E3A39" d="M267.839,76.801V36.08l-11.28-6.72v47.441h-3.92V22.48l15.2,9.2v-8.24h3.92v53.361H267.839z"/>
	<path fill="#3E3A39" d="M282.317,76.801V27.36h-6.32v-3.92h16.48v3.92h-6.24v49.441H282.317z"/>
	<path fill="#3E3A39" d="M297.117,76.801V40.48h-2l-1.44-3.92h3.44V23.44h13.68v3.92h-9.76v9.2h9.28l1.439,3.92h-10.72v32.401h9.76
		v3.92H297.117z"/>
	<path fill="#3E3A39" d="M334.558,76.801l-13.761-11.521v11.521h-3.92V23.44h2.96c5.92,0,10.986,2.027,15.2,6.08
		c4.213,4.054,6.32,9.067,6.32,15.04c0,4.8-1.308,8.96-3.92,12.481c-2.614,3.52-6.24,6.158-10.88,7.92l14.239,11.84H334.558z
		 M337.438,44.88c0-4.853-1.561-8.893-4.681-12.12c-3.12-3.226-7.107-5.08-11.96-5.56v34.96c4.801-0.533,8.721-2.32,11.761-5.359
		C335.81,53.6,337.438,49.627,337.438,44.88z"/>
	<path fill="#3E3A39" d="M347.037,76.801V23.44h3.92v53.361H347.037z"/>
	<path fill="#3E3A39" d="M411.117,50.24c0,7.52-2.668,13.948-8,19.28c-5.334,5.334-11.761,8-19.28,8
		c-7.521,0-13.974-2.611-19.36-7.84c-5.387-5.227-8.08-11.625-8.08-19.2c0-7.84,2.693-14.426,8.08-19.76c5.387-5.333,12-8,19.84-8
		c7.467,0,13.801,2.708,19,8.12C408.517,36.253,411.117,42.72,411.117,50.24z M360.237,50.16c0,6.454,2.292,11.975,6.88,16.561
		c4.586,4.586,10.132,6.879,16.64,6.879c6.452,0,11.986-2.252,16.6-6.76c4.613-4.506,6.921-9.959,6.921-16.36
		c0-6.827-2.32-12.506-6.961-17.04c-4.64-4.533-10.347-6.8-17.119-6.8c-6.294,0-11.694,2.334-16.2,7
		C362.489,38.307,360.237,43.813,360.237,50.16z"/>
	<path fill="#3E3A39" d="M434.077,76.801l-13.761-11.521v11.521h-3.92V23.44h2.96c5.92,0,10.986,2.027,15.2,6.08
		c4.213,4.054,6.32,9.067,6.32,15.04c0,4.8-1.308,8.96-3.92,12.481c-2.614,3.52-6.24,6.158-10.88,7.92l14.239,11.84H434.077z
		 M436.957,44.88c0-4.853-1.561-8.893-4.681-12.12c-3.12-3.226-7.107-5.08-11.96-5.56v34.96c4.801-0.533,8.721-2.32,11.761-5.359
		C435.329,53.6,436.957,49.627,436.957,44.88z"/>
</g>
</svg>
